<?xml version="1.0" encoding="UTF-8" standalone="no"?>
<!DOCTYPE svg PUBLIC "-//W3C//DTD SVG 1.1//EN" "http://www.w3.org/Graphics/SVG/1.1/DTD/svg11.dtd">
<svg width="100%" height="100%" viewBox="0 0 1000 1000" version="1.1" xmlns="http://www.w3.org/2000/svg" xmlns:xlink="http://www.w3.org/1999/xlink" xml:space="preserve" xmlns:serif="http://www.serif.com/" style="fill-rule:evenodd;clip-rule:evenodd;stroke-linejoin:round;stroke-miterlimit:2;">
    <g id="sooriya" transform="matrix(1.08202,0,0,1.29572,0,0)">
        <rect x="0" y="0" width="924.2" height="771.773" style="fill:none;"/>
        <g transform="matrix(2.18702,0,0,1.82632,-351.542,-224.145)">
            <path d="M281.26,136.2C294.468,132.078 330.06,127.21 336.06,127.49C346.37,127.78 356.74,126.85 366.99,128.28C373.12,128.91 393.55,133.62 397.27,136.15C392.96,136.34 380.754,136.35 376.842,136.63C368.521,137.227 363.676,137.517 355.5,139.52C341.46,142.96 327.51,147.09 314.4,153.26C299.43,160.45 285.55,170.05 274.03,182.04C264.81,192.3 256.03,203.35 251.2,216.43C247.29,224.32 246.3,233.1 244.48,241.6C242.91,248.29 243.42,255.24 243.61,262.05C244.53,268.34 245.93,274.55 247.21,280.78C251.87,297.81 262.81,312.55 276.18,323.83C285.31,331.29 295.2,337.79 305.62,343.29C324.45,352.54 343.67,360.96 362.97,369.18C377.04,376 391.87,382.63 402.54,394.46C411.39,403.47 415.28,416.6 414.25,429.05C412.29,442.9 404.66,456.16 392.93,463.96C383.16,469.92 372.14,474.19 360.59,474.48C347.03,474.46 333.24,475.42 319.99,471.85C297.84,465.38 276.8,455.53 256.81,444.08C249.04,438.92 241.33,433.66 233.79,428.18C213.76,411.8 195.73,392.44 183.47,369.49C177.86,359.25 173.14,348.47 169.85,337.26C167.45,326.38 163.63,315.69 163.5,304.43C163.44,295.05 163.48,285.67 163.47,276.28C163.33,268.2 165.68,260.38 167.57,252.6C170.79,236.44 178.12,221.44 186.36,207.29C191.15,199.34 196.87,191.97 203.09,185.09C211.98,175.57 221.42,166.42 232.43,159.36C247.27,148.99 264.02,141.58 281.26,136.2Z" style="fill:rgb(254,254,254);fill-rule:nonzero;"/>
        </g>
        <g transform="matrix(2.18702,0,0,1.82632,-351.542,-224.145)">
            <path d="M367.89,195.91C374.66,193.54 381.91,193.6 388.94,192.65C396.65,191.88 404.28,193.54 411.97,193.78C421.99,194.43 431.24,198.48 440.71,201.43C460.86,209.01 480.22,218.79 497.98,230.97C513.2,240.67 526.46,253.15 538.4,266.62C548.2,277.57 555.9,290.2 562.94,303.05C568.03,313.18 572.2,323.81 575.3,334.71C576.64,343.17 578.89,351.45 580.38,359.88C580.71,371.31 580.62,382.78 580.43,394.22C579.25,402.66 576.93,410.91 575.36,419.28C570.41,437.46 561.58,454.42 550.84,469.82C544.1,479.59 535.54,487.87 526.96,495.99C508.81,512.66 486.3,523.93 462.83,531.02C453.27,534.83 442.85,535.17 433.03,538.02C425.2,540.37 416.98,538.87 409.02,540.21C397.32,541.49 385.71,539.08 374.03,539.51C368.7,539.47 349.84,533.75 345.79,531.59C353.42,529.69 361.33,531.14 369.03,529.83C375.43,529.41 381.83,528.91 388.21,528.19C394.16,527.3 401.259,525.67 407.089,524.28C416.389,522.06 423.63,517.4 432.2,513.24C445.6,506.72 457.65,497.67 468.44,487.43C477.14,478.23 485.31,468.24 490.52,456.6C494.16,448.34 497.99,439.93 498.74,430.81C499.48,422.26 501.48,413.63 499.91,405.06C498.5,396.75 498.37,388.07 494.72,380.31C490.07,368.06 482.44,357.06 472.98,348.04C459.63,336.47 444.73,326.62 428.53,319.5C405.91,307.99 381.67,299.9 359.57,287.33C354.08,284.01 349.02,280.03 344.18,275.82C338.32,270.64 334.11,263.77 331.64,256.39C329.93,251.47 330.55,246.2 330.42,241.09C329.63,229.28 335.87,218.11 343.86,209.85C350.29,202.91 359.17,199.1 367.89,195.91Z" style="fill:rgb(254,254,254);fill-rule:nonzero;"/>
        </g>
    </g>
</svg>
